<?xml version="1.0" encoding="iso-8859-1"?>
<!-- Uploaded to: SVG Repo, www.svgrepo.com, Generator: SVG Repo Mixer Tools -->
<!DOCTYPE svg PUBLIC "-//W3C//DTD SVG 1.1//EN" "http://www.w3.org/Graphics/SVG/1.1/DTD/svg11.dtd">
<svg fill="#000000" version="1.1" id="Capa_1" xmlns="http://www.w3.org/2000/svg" xmlns:xlink="http://www.w3.org/1999/xlink" 
	 width="800px" height="800px" viewBox="0 0 547.706 547.705"
	 xml:space="preserve">
<g>
	<g>
		<path d="M202.297,488.398c2.926,4.398,3.854,3.959,2.199-1.052l-41.023-124.198c-1.654-5.011-4.514-5.067-6.388-0.143
			c-7.105,18.78-11.255,29.729-13.674,36.127c-1.865,4.943-0.736,12.297,2.543,16.447c9.18,11.608,27.387,34.597,42.658,53.875
			C193.671,475.814,198.166,482.183,202.297,488.398z"/>
		<path d="M404.324,399.133c-2.43-6.397-6.579-17.356-13.693-36.118c-1.865-4.943-4.725-4.886-6.389,0.134l-41.032,124.217
			c-1.645,5.012-0.727,5.451,2.209,1.053c4.131-6.226,8.645-12.585,13.693-18.963c15.281-19.278,33.488-42.267,42.678-53.875
			C405.05,411.43,406.188,404.066,404.324,399.133z"/>
		<path d="M385.533,68.604c-9.84-20.282-9.056-42.936-7.563-55.357c0.65-5.25-2.544-10.547-7.641-11.915l-3.682-0.995
			C361.55-1.04,356.1,1.935,353.948,6.764C345.82,25.066,322.382,65.2,273.002,65.2c-49.285,0-71.719-40.038-79.417-58.369
			c-2.046-4.867-7.401-7.86-12.508-6.493l-3.701,0.995c-5.106,1.368-8.291,6.665-7.65,11.915
			c1.521,12.421,2.314,35.075-7.545,55.357c-14.497,29.845-30.695,45.192-22.166,112.541c7.554,59.651,35.161,94.583,26.536,140.885
			c-0.966,5.192-0.841,13.358,0.803,18.379l53.626,162.371c1.654,5.011,5.259,12.709,8.291,17.031
			c11.733,16.772,24.097,27.894,44.58,27.894c20.473,0,32.818-11.111,44.57-27.855c3.021-4.322,6.646-12.029,8.291-17.041
			l53.636-162.399c1.664-5.011,1.77-13.187,0.822-18.379c-8.625-46.312,18.973-81.234,26.517-140.885
			C416.219,113.796,400.02,98.449,385.533,68.604z"/>
	</g>
</g>
</svg>