<?xml version="1.0" encoding="iso-8859-1"?>
<!-- Uploaded to: SVG Repo, www.svgrepo.com, Generator: SVG Repo Mixer Tools -->
<svg fill="#000000" height="800px" width="800px" version="1.1" id="Layer_1" xmlns="http://www.w3.org/2000/svg" xmlns:xlink="http://www.w3.org/1999/xlink" 
	 viewBox="0 0 512 512" xml:space="preserve">
<g>
	<g>
		<path d="M495.249,201.016h-83.757v-83.757C411.492,52.567,358.933,0,294.233,0c-9.251,0-16.751,7.5-16.751,16.751v83.757h-83.757
			c-64.69,0-117.259,52.559-117.259,117.259c0,9.251,7.5,16.751,16.751,16.751h83.757v29.438L14.694,426.235
			c-19.592,19.595-19.592,51.476,0.001,71.071c19.597,19.592,51.479,19.59,71.07-0.001l112.185-112.185
			c21.202,30.446,56.451,50.414,96.282,50.414c9.251,0,16.751-7.5,16.751-16.751v-83.757h83.757
			c64.657,0,117.259-52.603,117.259-117.259C512,208.516,504.5,201.016,495.249,201.016z M310.984,117.259V35.178
			c37.712,7.658,67.005,41.222,67.005,82.082v83.757h-36.373c-5.096-14.378-16.559-25.645-30.633-30.633V117.259z M62.076,473.615
			c-6.532,6.533-17.16,6.533-23.69,0.001c-6.532-6.532-6.532-17.159-0.001-23.691l138.589-138.589v6.94
			c0,12.215,1.881,23.999,5.362,35.081L62.076,473.615z M277.481,400.349c-38.182-7.784-67.005-41.626-67.005-82.074v-83.757h36.373
			c4.963,14.004,16.262,25.54,30.633,30.633C277.481,270.114,277.481,394.915,277.481,400.349z M277.481,170.383
			c-14.194,5.03-25.599,16.432-30.633,30.633h-53.124h-82.082c7.656-37.705,41.214-67.005,82.082-67.005h83.757V170.383z
			 M294.233,234.519c-9.237,0-16.751-7.515-16.751-16.751s7.515-16.751,16.751-16.751c9.237,0,16.751,7.515,16.751,16.751
			S303.471,234.519,294.233,234.519z M394.741,301.524h-83.757v-36.373c13.805-4.893,25.463-16.047,30.633-30.633h53.124h82.074
			C469.032,272.702,435.188,301.524,394.741,301.524z"/>
	</g>
</g>
</svg>