<?xml version="1.0" encoding="iso-8859-1"?>
<!-- Uploaded to: SVG Repo, www.svgrepo.com, Generator: SVG Repo Mixer Tools -->
<svg fill="#000000" height="800px" width="800px" version="1.1" id="Capa_1" xmlns="http://www.w3.org/2000/svg" xmlns:xlink="http://www.w3.org/1999/xlink" 
	 viewBox="0 0 34.728 34.728" xml:space="preserve">
<g>
	<g id="b62_pinchito">
		<path d="M33.515,1.213C32.733,0.43,31.692,0,30.586,0c-2.216,0-4.146,1.933-4.144,4.143c0,0.825,0.248,1.587,0.664,2.234
			l-1.46,1.459c-2.896-2.631-6.024-3.816-7.215-2.623c-1.193,1.189-0.009,4.318,2.624,7.212l-1.515,1.519
			c-3.682-3.36-7.667-4.875-9.187-3.356c-1.518,1.52-0.004,5.505,3.357,9.187l-1.557,1.555c-2.968-2.71-6.156-3.955-7.352-2.76
			c-1.197,1.193,0.049,4.385,2.76,7.35l-1.254,1.255c-2.488-2.257-5.07-3.351-5.982-2.438c-0.914,0.912,0.18,3.495,2.438,5.984
			l-1.4,1.4l1.511,1.512l1.411-1.412c2.4,2.088,4.828,3.062,5.707,2.185c0.879-0.88-0.095-3.311-2.183-5.707l1.274-1.278
			c2.889,2.536,5.918,3.665,7.076,2.506c1.156-1.157,0.029-4.188-2.506-7.073l1.566-1.566c3.68,3.36,7.667,4.876,9.188,3.354
			c1.518-1.52,0.004-5.506-3.358-9.186l1.528-1.527c2.815,2.458,5.783,3.524,6.937,2.37c1.155-1.155,0.089-4.122-2.368-6.937
			l1.549-1.551c0.57,0.295,1.205,0.477,1.89,0.477c1.104,0.002,2.147-0.429,2.929-1.211c0.782-0.784,1.212-1.822,1.212-2.932
			C34.727,3.035,34.297,1.996,33.515,1.213z M30.586,6.145c-1.105,0-2.003-0.895-2.005-2.002c0-0.533,0.207-1.036,0.587-1.417
			c0.38-0.378,0.881-0.586,1.418-0.586c0.534,0,1.038,0.208,1.417,0.586c0.378,0.379,0.586,0.884,0.586,1.417
			C32.589,5.217,31.657,6.145,30.586,6.145z"/>
	</g>
	<g id="Capa_1_174_">
	</g>
</g>
</svg>