<?xml version="1.0" ?>
<!-- Uploaded to: SVG Repo, www.svgrepo.com, Generator: SVG Repo Mixer Tools -->
<svg fill="#000000" width="800px" height="800px" viewBox="0 0 512 512" xmlns="http://www.w3.org/2000/svg">
<g id="Apparel_technology">
<path d="M453.7578,291.9431c-2.3144-10.7607-15.1211-19.4883-38.0683-25.9394-20.6875-5.8164-47.6485-9.02-75.918-9.02a349.3228,349.3228,0,0,0-40.0117,2.2408V207.4021q.59.2894,1.2177.5718c6.9961,3.1416,16.1651,4.872,25.8184,4.872s18.8232-1.73,25.8193-4.872c11.501-5.1651,13.2178-12.2193,13.2178-15.9644V133.8889c0-22.7886-12.7158-42.2734-37.7949-57.9126-17.2334-10.7471-39.8975-19.4673-67.3652-25.9189a7.6853,7.6853,0,0,1-5.001-3.9263c-8.1065-15.3022-34.0987-25.5835-64.6778-25.5835-31.0078,0-57.1054,10.4707-64.9394,26.0542a7.8113,7.8113,0,0,1-5.0674,4.1553C94.0215,57.34,71.85,66.134,55.0889,76.8958c-24.1143,15.4834-36.3418,34.6586-36.3418,56.9931V192.01c0,3.7451,1.7168,10.7993,13.2177,15.9644,6.9961,3.1416,16.1651,4.872,25.8184,4.872s18.8223-1.73,25.8184-4.872q.6283-.2827,1.2177-.5718v77.4312c.001,23.81,54.0655,36.2675,107.4707,36.2675,9.1031,0,18.21-.3816,27.08-1.1006-33.0784,144.7754-33.08,145.408-33.08,146.2549,0,17.312,36.1241,25.1973,69.6875,25.1973,17.6446,0,33.5039-2.0088,45.8663-5.81,13.9394-4.2856,21.9033-10.3569,23.6689-18.0444l11.5527-59.5327a2.694,2.694,0,0,1,5.2881-.0059l11.6367,59.35.0616.28c5.43,22.0493,54.5791,23.7627,69.5136,23.7627,33.5635,0,69.6875-7.8853,69.6875-25.1973C493.2529,465.3562,493.2549,464.7146,453.7578,291.9431ZM192.29,309.1008c-26.539,0-51.4111-3.06-70.0351-8.6147-20.0781-5.9893-25.4356-12.6577-25.4356-15.6533l.01-141.3034a6.335,6.335,0,0,0-12.67,0v49.7874c-2.3069,2.7509-10.751,7.5291-26.3762,7.5291-18.6084,0-27.0361-6.7783-27.0361-8.8364V133.8889c0-17.9844,10.3711-33.7622,30.8261-46.8955,15.419-9.9009,36.9483-18.4,62.26-24.5791a19.7825,19.7825,0,0,0,12.9424-10.4224c4.7392-9.4262,25.3516-19.4443,54.2187-19.4443,21.8164,0,47.3965,6.5952,54.0743,19.2A19.6784,19.6784,0,0,0,257.93,61.74c83.4443,19.6,95.9033,53.6167,95.9033,72.1494V192.01c0,2.0581-8.4277,8.8364-27.0371,8.8364-15.6772,0-24.1277-4.8108-26.4009-7.5571V143.5294a6.33,6.33,0,1,0-12.66,0l.0249,117.3485a213.8037,213.8037,0,0,0-23.6768,5.0608c-22.9053,6.4038-35.7725,15.07-38.248,25.773q-1.8912,8.2725-3.6621,16.0228C212.6387,308.6265,202.5981,309.1008,192.29,309.1008ZM423.5654,479.4524c-39.2841,0-56.2588-8.8643-57.834-14.5269l-11.6025-59.1748a14.6937,14.6937,0,0,0-28.8437.0293L313.8,464.9812c-1.2871,4.9326-19.958,14.4712-57.8223,14.4712-38.1162,0-56.3144-9.5054-57.6191-12.9346,1.366-6.3342,10.6362-47.0877,20.5979-90.7693.5574.0121,1.13.0408,1.6763.0408,22.71,0,35.65-10.29,42.65-19.44a54.1332,54.1332,0,0,0,10.16-22.95,6.3307,6.3307,0,0,0-12.53-1.82,41.9734,41.9734,0,0,1-7.98,17.45c-7.16,9.105-17.6079,13.8259-31.094,14.0826,5.6638-24.8249,11.3277-49.62,15.6917-68.7113,2.4023-10.3881,40.1933-25.4165,102.2412-25.4165,62.3721,0,100.0547,15.0767,102.2578,25.4981l.0215.0957c4.352,19.0388,9.9971,43.7513,15.645,68.5034-33.69-.9041-38.6055-30.1315-38.8135-31.502a6.3307,6.3307,0,0,0-12.53,1.82,54.0432,54.0432,0,0,0,10.15,22.95c7.01,9.15,19.94,19.44,42.65,19.44.4668,0,.959-.0259,1.4341-.0351,9.958,43.6608,19.2285,84.4133,20.5972,90.7592C479.8662,469.9539,461.667,479.4524,423.5654,479.4524Z"/>
<ellipse cx="339.7714" cy="295.3058" rx="86.3298" ry="19.8327"/>
<path d="M242.04,203.0354a11.531,11.531,0,1,0,0-9H220.6956V182.1231a10.47,10.47,0,0,0-10.47-10.47h-3.3391v-7.0681a.9884.9884,0,0,1,.9873-.9873h10.5391a9.998,9.998,0,0,0,9.9868-9.9868v-5.8472a11.5311,11.5311,0,1,0-9,0v5.8471a.9882.9882,0,0,1-.9868.9868H207.8735a9.9989,9.9989,0,0,0-9.9873,9.9873v7.0681H183.7109V147.7634a11.5311,11.5311,0,1,0-9,0v23.8893h-2.5376a10.47,10.47,0,0,0-10.47,10.47v11.9123H139.2559a11.5315,11.5315,0,1,0,0,9h22.4475v13.5a10.47,10.47,0,0,0,10.47,10.47h2.5376v15.5908a2.8506,2.8506,0,0,1-2.8476,2.8472H160.8525a11.5311,11.5311,0,1,0,0,9h11.0108a11.8607,11.8607,0,0,0,11.8476-11.8472V227.0056h14.1753v20.2421a11.5314,11.5314,0,1,0,9,0v-20.242h3.3391a10.47,10.47,0,0,0,10.47-10.47v-13.5Zm-31.2327,10.2192a3.6794,3.6794,0,0,1-3.68,3.6795H175.2712a3.6794,3.6794,0,0,1-3.6794-3.6795V185.4035a3.6793,3.6793,0,0,1,3.6794-3.6794h31.8562a3.6793,3.6793,0,0,1,3.68,3.6794Z"/>
<path d="M190.6475,101.4311c35.4367,0,40.9187-31.39,41.7172-38.752.0738-.4821.1307-1.537.1307-1.537,0-11.26-18.7359-20.3878-41.8479-20.3878S148.8,49.8822,148.8,61.1421c0,0,.0566,1.0549.1306,1.537C149.729,70.0408,155.2109,101.4311,190.6475,101.4311Z"/>
</g>
</svg>