<?xml version="1.0" ?>
<!-- Uploaded to: SVG Repo, www.svgrepo.com, Generator: SVG Repo Mixer Tools -->
<svg fill="#000000" width="800px" height="800px" viewBox="0 0 32 32" xmlns="http://www.w3.org/2000/svg">
<g data-name="4. Setting" id="_4._Setting">
<path d="M29.29,19.05a1,1,0,0,1-.46-1,12.32,12.32,0,0,0,0-4.08,1,1,0,0,1,.46-1,3,3,0,0,0,1.09-4l-1-1.8A3,3,0,0,0,25.29,6a1,1,0,0,1-1.1-.11,13.06,13.06,0,0,0-3.55-2A1,1,0,0,1,20,3a3,3,0,0,0-3-3H15a3,3,0,0,0-3,3,1,1,0,0,1-.64.9,13.06,13.06,0,0,0-3.55,2A1,1,0,0,1,6.71,6a3,3,0,0,0-4,1.08l-1,1.8a3,3,0,0,0,1.09,4,1,1,0,0,1,.46,1,12.33,12.33,0,0,0,0,4.08,1,1,0,0,1-.46,1,3,3,0,0,0-1.09,4l1,1.8A3,3,0,0,0,6.71,26a1,1,0,0,1,1.1.11,13.06,13.06,0,0,0,3.55,2A1,1,0,0,1,12,29a3,3,0,0,0,3,3H17a3,3,0,0,0,3-3,1,1,0,0,1,.64-.9,13.06,13.06,0,0,0,3.55-2,1,1,0,0,1,1.1-.11,3,3,0,0,0,4.05-1.08l1-1.8A3,3,0,0,0,29.29,19.05Zm-2.43-4.77a10.64,10.64,0,0,1,0,3.44,3,3,0,0,0,1.43,3.07,1,1,0,0,1,.35,1.31l-1,1.8a1,1,0,0,1-1.32.35,3,3,0,0,0-3.36.28,10.57,10.57,0,0,1-3,1.73A3,3,0,0,0,18,29a1,1,0,0,1-1,1H15a1,1,0,0,1-1-1,3,3,0,0,0-1.93-2.77,10.57,10.57,0,0,1-3-1.73,3,3,0,0,0-3.36-.28,1,1,0,0,1-1.32-.35l-1-1.8a1,1,0,0,1,.35-1.31,3,3,0,0,0,1.43-3.07,10.64,10.64,0,0,1,0-3.44,3,3,0,0,0-1.43-3.07A1,1,0,0,1,3.36,9.9l1-1.8a1,1,0,0,1,1.32-.35,3,3,0,0,0,3.36-.28,10.57,10.57,0,0,1,3-1.73A3,3,0,0,0,14,3a1,1,0,0,1,1-1H17a1,1,0,0,1,1,1,3,3,0,0,0,1.93,2.77,10.57,10.57,0,0,1,3,1.73,3,3,0,0,0,3.36.28,1,1,0,0,1,1.32.35l1,1.8a1,1,0,0,1-.35,1.31A3,3,0,0,0,26.86,14.28Z"/>
<path d="M16,7a9,9,0,1,0,9,9A9,9,0,0,0,16,7Zm0,16a7,7,0,1,1,7-7A7,7,0,0,1,16,23Z"/>
<path d="M16,13h2a1,1,0,0,0,0-2H16a3,3,0,0,0,0,6,1,1,0,0,1,0,2H14a1,1,0,0,0,0,2h2a3,3,0,0,0,0-6,1,1,0,0,1,0-2Z"/>
</g>
</svg>