<?xml version="1.0" encoding="utf-8"?><!-- Uploaded to: SVG Repo, www.svgrepo.com, Generator: SVG Repo Mixer Tools -->
<svg fill="#000000" width="800px" height="800px" viewBox="-1.64 0 31.402 31.402" xmlns="http://www.w3.org/2000/svg">
  <path id="Path_11" data-name="Path 11" d="M94.616,129.825H93.244v-8.41a.924.924,0,0,0-.451-.8,6,6,0,0,0-2.117-.694c-.831-.134-2.714-.681-9.657-.681h-.012c-6.943,0-8.826.547-9.657.681a6.017,6.017,0,0,0-2.12.694.931.931,0,0,0-.452.8v8.41H67.409a.459.459,0,0,0-.459.461v5.042a.459.459,0,0,0,.459.46h1.369v11.755a.46.46,0,0,0,.461.46h.484v1.1c0,1.629,1.212,1.543,2.735,1.543s2.781.086,2.781-1.543v-1.023H86.787V149.1c0,1.629,1.254,1.543,2.781,1.543s2.738.086,2.738-1.543V148h.481a.458.458,0,0,0,.457-.46V135.788h1.372a.46.46,0,0,0,.46-.46v-5.042A.46.46,0,0,0,94.616,129.825Zm-19.287-7.68H86.695v3.676H75.329Zm1.237,21.7a.554.554,0,0,1-.556.548H71.252a.553.553,0,0,1-.552-.548V142.19a.556.556,0,0,1,.552-.555H76.01a.557.557,0,0,1,.556.555Zm14.759,0a.553.553,0,0,1-.551.548H86.017a.555.555,0,0,1-.557-.548V142.19a.557.557,0,0,1,.557-.555h4.757a.556.556,0,0,1,.551.555Zm0-6.236a.46.46,0,0,1-.459.46H71.16a.46.46,0,0,1-.46-.46v-8.565a.459.459,0,0,1,.46-.46H90.866a.459.459,0,0,1,.459.46Z" transform="translate(-66.95 -119.243)"/>
</svg>