<?xml version="1.0" encoding="utf-8"?>

<!DOCTYPE svg PUBLIC "-//W3C//DTD SVG 1.1//EN" "http://www.w3.org/Graphics/SVG/1.1/DTD/svg11.dtd">
<!-- Uploaded to: SVG Repo, www.svgrepo.com, Generator: SVG Repo Mixer Tools -->
<svg height="800px" width="800px" version="1.1" id="_x32_" xmlns="http://www.w3.org/2000/svg" xmlns:xlink="http://www.w3.org/1999/xlink" 
	 viewBox="0 0 512 512"  xml:space="preserve">
<style type="text/css">
	.st0{fill:#000000;}
</style>
<g>
	<path class="st0" d="M440.182,134.531c-0.417-4.038-3.814-7.104-7.869-7.104H79.686c-4.054,0-7.452,3.066-7.868,7.104
		L33.996,503.29c-0.224,2.224,0.502,4.44,2,6.1c1.498,1.66,3.629,2.61,5.869,2.61h428.271c2.239,0,4.371-0.95,5.869-2.61
		c1.498-1.66,2.224-3.876,2-6.108L440.182,134.531z M76.907,472.464l31.32-305.501h295.54l31.328,305.501H76.907z"/>
	<path class="st0" d="M166.032,209.549c-8.193,0-14.826,6.64-14.826,14.826c0,8.186,6.633,14.826,14.826,14.826
		c8.194,0,14.826-6.64,14.826-14.826C180.858,216.19,174.226,209.549,166.032,209.549z"/>
	<path class="st0" d="M345.96,209.549c-8.193,0-14.826,6.64-14.826,14.826c0,8.186,6.633,14.826,14.826,14.826
		c8.193,0,14.826-6.64,14.826-14.826C360.786,216.19,354.153,209.549,345.96,209.549z"/>
	<path class="st0" d="M200.086,46.88C214.433,32.548,234.124,23.73,256,23.722c21.876,0.008,41.566,8.826,55.914,23.158
		c14.324,14.348,23.15,34.038,23.158,55.914h23.722C358.786,46.015,312.779,0.008,256,0
		c-56.78,0.008-102.787,46.015-102.794,102.794h23.722C176.935,80.918,185.762,61.227,200.086,46.88z"/>
</g>
</svg>